#N canvas 2820 52 2560 989 12;
#X obj 1072 524 *~;
#X obj 1068 578 dac~;
#X obj 1340 350 vsl 15 128 0 1 0 0 empty empty empty 0 -9 0 10 #fcfcfc #000000 #000000 0 1;
#X floatatom 1079 396 5 0 0 0 - - - 0;
#X obj 1285 -189 tgl 30 0 empty empty empty 17 7 0 10 #bbbbbb #000000 #000000 0 1;
#X msg 1283 68 1;
#X obj 1283 91 +;
#X obj 1330 91 f;
#X obj 1283 145 + 1;
#X floatatom 1283 170 5 0 0 0 - - - 0;
#X floatatom 1160 434 5 0 0 0 - - - 0;
#X floatatom 1216 433 5 0 0 0 - - - 0;
#X obj 1217 343 loadbang;
#X msg 1198 385 80;
#X msg 1275 375 900;
#X msg 1080 418 next \$1;
#X floatatom 1178 206 5 0 0 0 - - - 0;
#X floatatom 1120 260 5 0 0 0 - - - 0;
#X msg 1120 282 next \$1;
#X obj 1117 310 clone Clone_Synth 16;
#X msg 1340 486 \$1 25;
#X obj 1340 509 line~;
#X obj 1120 237 + 7;
#X obj 1070 478 clone Clone_Synth 6;
#N canvas 130 130 450 250 (subpatch) 0;
#X array tS1 12 float 5;
#A 0 54 55 60 71 83 90 90 89 90 89 90 90;
#X array dS1 12 float 5;
#A 0 52 54 59 62 72 82 87 84 89 88 88 88;
#X array twMC 12 float 5;
#A 0 54 55 55 58 64 69 72 74 77 76 76 79;
#X array dwMC 12 float 5;
#A 0 55 55 56 56 59 63 65 67 67 67 68 70;
#X array tDLS 12 float 5;
#A 0 55 54 56 57 60 67 71 71 72 72 75 76;
#X array dDLS 12 float 5;
#A 0 54 54 56 56 57 60 66 69 68 69 71 73;
#X coords 0 100 12 40 200 140 1 0 0;
#X restore 1664 -151 graph;
#X msg 2026 -297 \; tS1 0 54 55 60 71 83 90 90 89 90 89 90 90;
#X msg 2025 -253 \; dS1 0 52 54 59 62 72 82 87 84 89 88 88 88, f 42;
#X msg 2027 -204 \; twMC 0 54 55 55 58 64 69 72 74 77 76 76 79, f 44;
#X msg 2037 92 \; dwMC 0 55 55 56 56 59 63 65 67 67 67 68 70;
#X msg 2036 139 \; tDLS 0 55 54 56 57 60 67 71 71 72 72 75 76, f 43;
#X msg 2037 192 \; dDLS 0 54 54 56 56 57 60 66 69 68 69 71 73;
#X obj 2542 1275 0;
#X obj 1299 47 metro 500;
#X floatatom 2039 -95 5 0 0 0 - - - 0;
#X msg 2039 -69 \; tS1 color \$1;
#X text 2084 -95 comment;
#X floatatom 2155 -93 5 0 0 0 - - - 0;
#X text 2200 -93 comment;
#X floatatom 2270 -93 5 0 0 0 - - - 0;
#X floatatom 2036 14 5 0 0 0 - - - 0;
#X floatatom 2149 13 5 0 0 0 - - - 0;
#X floatatom 2263 16 5 0 0 0 - - - 0;
#X msg 2155 -67 \; dS1 color \$1;
#X msg 2270 -67 \; twMC color \$1;
#X msg 2036 40 \; dwMC color \$1;
#X msg 2149 39 \; tDLS color \$1;
#X msg 2263 42 \; dDLS color \$1;
#X obj 1567 -39 tgl 25 0 empty empty empty 17 7 0 10 #ff80ff #000000 #000000 0 1;
#X floatatom 2414 -94 4 1 10 0 - - - 0;
#X obj 1877 -51 tgl 25 0 empty empty empty 17 7 0 10 #a57616 #000000 #000000 0 1;
#X text 2456 -103 line width, f 5;
#X msg 2418 -61 \; tS1 width \$1 \; dS1 width \$1 \; twMC width \$1 \; dwMC width \$1 \; tDLS width \$1 \; dDLS width \$1 \;, f 16;
#X msg 1567 -13 \; tS1 vis \$1;
#X msg 1877 -25 \; dS1 vis \$1;
#X obj 1876 -173 tgl 25 0 empty empty empty 17 7 0 10 #617cfc #000000 #000000 0 1;
#X obj 1514 -108 tgl 25 0 empty empty empty 17 7 0 10 #b340ff #000000 #000000 0 1;
#X obj 1932 -103 tgl 25 0 empty empty empty 17 7 0 10 #80ff00 #000000 #000000 0 1;
#X obj 1564 -167 tgl 25 0 empty empty empty 17 7 0 10 #eb0214 #000000 #000000 0 1;
#X msg 1565 -141 \; twMC vis \$1;
#X msg 1876 -147 \; dwMC vis \$1;
#X msg 1514 -82 \; tDLS vis \$1;
#X msg 1932 -77 \; dDLS vis \$1;
#X text 2081 14 comment;
#X text 2194 13 comment;
#X text 2308 16 comment;
#X text 2315 -93 comment;
#X msg 2028 -128 818;
#X msg 2381 -123 2;
#X msg 2265 -128 900;
#X msg 2153 -131 640;
#X msg 2019 -12 148;
#X msg 2253 -15 262;
#X msg 2135 -16 528;
#X obj 1240 210 tabread tS1;
#X obj 1284 123 % 12;
#X obj 1337 210 tabread dS1;
#X obj 1430 211 tabread twMC;
#X obj 1291 278 tabread dwMC;
#X obj 1411 282 tabread tDLS;
#X obj 1517 275 tabread dDLS;
#X obj 99 467 *~;
#X obj 95 521 dac~;
#X obj 154 452 vsl 15 128 0 1 0 0 empty empty empty 0 -9 0 10 #fcfcfc #000000 #000000 0 1;
#X floatatom 89 350 5 0 0 0 - - - 0;
#X msg 152 182 1;
#X obj 152 205 +;
#X obj 199 205 f;
#X obj 152 259 + 1;
#X floatatom 152 284 5 0 0 0 - - - 0;
#X floatatom 170 388 5 0 0 0 - - - 0;
#X floatatom 210 372 5 0 0 0 - - - 0;
#X obj 256 275 loadbang;
#X msg 214 347 80;
#X msg 293 347 900;
#X msg 90 372 next \$1;
#X floatatom 307 315 5 0 0 0 - - - 0;
#X floatatom 233 354 5 0 0 0 - - - 0;
#X msg 233 376 next \$1;
#X obj 230 404 clone Clone_Synth 16;
#X msg 154 588 \$1 25;
#X obj 154 611 line~;
#X obj 233 331 + 7;
#X obj 93 415 clone Clone_Synth 6;
#X obj 168 161 metro 500;
#X obj 91 316 tabread tS1;
#X obj 153 237 % 12;
#X obj 434 332 *~;
#X obj 430 386 dac~;
#X obj 505 334 vsl 15 128 0 1 0 0 empty empty empty 0 -9 0 10 #fcfcfc #000000 #000000 0 1;
#X floatatom 433 230 5 0 0 0 - - - 0;
#X msg 496 62 1;
#X obj 496 85 +;
#X obj 543 85 f;
#X obj 496 139 + 1;
#X floatatom 496 164 5 0 0 0 - - - 0;
#X floatatom 514 268 5 0 0 0 - - - 0;
#X floatatom 570 267 5 0 0 0 - - - 0;
#X obj 600 155 loadbang;
#X msg 574 242 80;
#X msg 653 242 900;
#X msg 434 252 next \$1;
#X floatatom 651 195 5 0 0 0 - - - 0;
#X floatatom 593 249 5 0 0 0 - - - 0;
#X msg 593 271 next \$1;
#X obj 590 299 clone Clone_Synth 16;
#X msg 502 473 \$1 25;
#X obj 414 469 line~;
#X obj 593 226 + 7;
#X obj 437 295 clone Clone_Synth 6;
#X obj 512 41 metro 500;
#X obj 497 117 % 12;
#X obj 435 196 tabread dS1;
#X obj 48 105 *~;
#X obj 47 147 dac~;
#X obj 101 -14 vsl 15 128 0 1 0 0 empty empty empty 0 -9 0 10 #fcfcfc #000000 #000000 0 1;
#X floatatom 35 -132 5 0 0 0 - - - 0;
#X msg 69 -290 1;
#X obj 69 -267 +;
#X obj 116 -267 f;
#X obj 69 -213 + 1;
#X floatatom 69 -188 5 0 0 0 - - - 0;
#X floatatom 87 -84 5 0 0 0 - - - 0;
#X floatatom 164 -75 5 0 0 0 - - - 0;
#X obj 173 -197 loadbang;
#X msg 147 -110 80;
#X msg 275 -99 900;
#X msg 28 -105 next \$1;
#X floatatom 224 -157 5 0 0 0 - - - 0;
#X floatatom 215 -92 5 0 0 0 - - - 0;
#X msg 215 -70 next \$1;
#X obj 182 -39 clone Clone_Synth 16;
#X msg 73 239 \$1 25;
#X obj 73 262 line~;
#X obj 215 -115 + 7;
#X obj 32 -44 clone Clone_Synth 6;
#X obj 85 -311 metro 500;
#X obj 70 -235 % 12;
#X obj 759 377 *~;
#X obj 743 428 dac~;
#X obj 681 369 vsl 15 128 0 1 0 0 empty empty empty 0 -9 0 10 #fcfcfc #000000 #000000 0 1;
#X floatatom 749 267 5 0 0 0 - - - 0;
#X msg 812 99 1;
#X obj 812 122 +;
#X obj 859 122 f;
#X obj 812 176 + 1;
#X floatatom 812 201 5 0 0 0 - - - 0;
#X floatatom 830 305 5 0 0 0 - - - 0;
#X floatatom 886 304 5 0 0 0 - - - 0;
#X obj 916 192 loadbang;
#X msg 890 279 80;
#X msg 969 279 900;
#X msg 750 289 next \$1;
#X floatatom 967 232 5 0 0 0 - - - 0;
#X floatatom 909 286 5 0 0 0 - - - 0;
#X msg 909 308 next \$1;
#X obj 906 336 clone Clone_Synth 16;
#X text 1369 428 Volume Slider;
#X msg 650 518 \$1 25;
#X obj 866 370 line~;
#X obj 909 263 + 7;
#X obj 753 332 clone Clone_Synth 6;
#X obj 828 78 metro 500;
#X obj 813 154 % 12;
#X obj 856 493 tabwrite~ t1;
#X obj 834 405 tgl 15 0 empty empty empty 17 7 0 10 #fcfcfc #000000 #000000 0 1;
#X text 882 410 Turn on table;
#X obj 39 -160 tabread twMC;
#X obj 751 232 tabread dwMC;
#X obj 320 200 *~;
#X obj 316 254 dac~;
#X obj 432 -25 vsl 15 128 0 1 0 0 empty empty empty 0 -9 0 10 #fcfcfc #000000 #000000 0 1;
#X floatatom 333 -122 5 0 0 0 - - - 0;
#X msg 396 -290 1;
#X obj 396 -267 +;
#X obj 443 -267 f;
#X obj 396 -213 + 1;
#X floatatom 396 -188 5 0 0 0 - - - 0;
#X floatatom 414 -84 5 0 0 0 - - - 0;
#X floatatom 470 -85 5 0 0 0 - - - 0;
#X obj 456 -204 loadbang;
#X msg 474 -110 80;
#X msg 581 -108 900;
#X msg 334 -100 next \$1;
#X floatatom 447 -150 5 0 0 0 - - - 0;
#X floatatom 521 -101 5 0 0 0 - - - 0;
#X msg 521 -79 next \$1;
#X obj 518 -51 clone Clone_Synth 16;
#X msg 433 125 \$1 25;
#X obj 433 148 line~;
#X obj 521 -124 + 7;
#X obj 337 -57 clone Clone_Synth 6;
#X obj 412 -311 metro 500;
#X obj 397 -235 % 12;
#X obj 1579 362 *~;
#X obj 1575 416 dac~;
#X obj 1964 211 vsl 15 128 0 1 0 0 empty empty empty 0 -9 0 10 #fcfcfc #000000 #000000 0 1;
#X floatatom 1635 241 5 0 0 0 - - - 0;
#X msg 1698 73 1;
#X obj 1698 96 +;
#X obj 1745 96 f;
#X obj 1698 150 + 1;
#X floatatom 1698 175 5 0 0 0 - - - 0;
#X floatatom 1716 279 5 0 0 0 - - - 0;
#X floatatom 1772 278 5 0 0 0 - - - 0;
#X obj 1802 166 loadbang;
#X msg 1776 253 80;
#X msg 1855 253 900;
#X msg 1636 263 next \$1;
#X floatatom 1853 206 5 0 0 0 - - - 0;
#X floatatom 1795 260 5 0 0 0 - - - 0;
#X msg 1795 282 next \$1;
#X obj 1792 310 clone Clone_Synth 16;
#X msg 1961 350 \$1 25;
#X obj 1961 373 line~;
#X obj 1795 237 + 7;
#X obj 1639 306 clone Clone_Synth 6;
#X obj 1714 52 metro 500;
#X obj 1699 128 % 12;
#X obj 1693 469 tabwrite~ t1;
#X obj 1687 423 metro 200;
#X obj 1671 381 tgl 15 0 empty empty empty 17 7 0 10 #fcfcfc #000000 #000000 0 1;
#X text 1719 386 Turn on table;
#X obj 335 -157 tabread tDLS;
#X obj 1637 206 tabread dDLS;
#X obj 1150 -4 tgl 25 0 empty empty empty 17 7 0 10 #ff80ff #000000 #000000 0 1;
#X obj 1233 -3 tgl 25 0 empty empty empty 17 7 0 10 #a57616 #000000 #000000 0 1;
#X obj 1151 -101 tgl 25 0 empty empty empty 17 7 0 10 #eb0214 #000000 #000000 0 1;
#X obj 1230 -101 tgl 25 0 empty empty empty 17 7 0 10 #617cfc #000000 #000000 0 1;
#X obj 1109 -53 tgl 25 0 empty empty empty 17 7 0 10 #b340ff #000000 #000000 0 1;
#X obj 1268 -56 tgl 25 0 empty empty empty 17 7 0 10 #80ff00 #000000 #000000 0 1;
#X obj 850 447 metro 500;
#X obj 2382 282;
#X text 1476 -206 click to show/hide graphs;
#X text 1031 -123 click each to hear each region individually;
#X text 1193 -247 PureData patch adapted from Henry Harrison, f 45;
#X text 1279 -269 Angelina Lam 2025;
#X text 1702 -231 latency to encoding of learned target stimuli across brain regions, f 36;
#X text 1208 -294 the sounds of behavioral neuroscience;
#X text 1006 -180 click to hear synthesis of all regions;
#X text 1683 -27 0 0.05 0.1;
#X text 1729 -4 time (s);
#X text 999 -97 whisker motor cortex;
#X text 950 -49 dorsolateral striatum;
#X text 1297 -49 dorsolateral striatum;
#X text 1260 -99 whisker motor cortex;
#X text 994 5 somatosensory cortex;
#X text 1264 3 somatosensory cortex;
#X text 1455 -114 D I S T R A C T O R, f 3;
#X text 1157 -320 C E R E B R A L S E R E N A D E II;
#X text 898 -86 T A R G E T;
#X text 166 -301 tWMC;
#X text 477 -291 tDLS;
#X text 241 181 tS1;
#X text 591 48 dS1;
#X text 290 -102;
#X text 2012 330;
#X connect 0 0 1 0;
#X connect 0 0 1 1;
#X connect 2 0 20 0;
#X connect 3 0 15 0;
#X connect 3 0 22 0;
#X connect 4 0 32 0;
#X connect 5 0 6 0;
#X connect 6 0 7 0;
#X connect 6 0 74 0;
#X connect 7 0 6 1;
#X connect 8 0 9 0;
#X connect 9 0 73 0;
#X connect 9 0 75 0;
#X connect 9 0 76 0;
#X connect 9 0 77 0;
#X connect 9 0 78 0;
#X connect 9 0 79 0;
#X connect 10 0 23 1;
#X connect 11 0 23 2;
#X connect 12 0 13 0;
#X connect 12 0 14 0;
#X connect 13 0 10 0;
#X connect 14 0 11 0;
#X connect 15 0 23 0;
#X connect 16 0 22 1;
#X connect 17 0 18 0;
#X connect 18 0 19 0;
#X connect 19 0 0 0;
#X connect 20 0 21 0;
#X connect 21 0 0 1;
#X connect 22 0 17 0;
#X connect 23 0 0 0;
#X connect 32 0 5 0;
#X connect 33 0 34 0;
#X connect 36 0 42 0;
#X connect 38 0 43 0;
#X connect 39 0 44 0;
#X connect 40 0 45 0;
#X connect 41 0 46 0;
#X connect 47 0 52 0;
#X connect 48 0 51 0;
#X connect 49 0 53 0;
#X connect 54 0 59 0;
#X connect 55 0 60 0;
#X connect 56 0 61 0;
#X connect 57 0 58 0;
#X connect 66 0 33 0;
#X connect 67 0 48 0;
#X connect 68 0 38 0;
#X connect 69 0 36 0;
#X connect 70 0 39 0;
#X connect 71 0 41 0;
#X connect 72 0 40 0;
#X connect 73 0 3 0;
#X connect 74 0 8 0;
#X connect 75 0 3 0;
#X connect 76 0 3 0;
#X connect 77 0 3 0;
#X connect 78 0 3 0;
#X connect 79 0 3 0;
#X connect 80 0 81 0;
#X connect 80 0 81 1;
#X connect 82 0 99 0;
#X connect 83 0 94 0;
#X connect 83 0 101 0;
#X connect 84 0 85 0;
#X connect 85 0 86 0;
#X connect 85 0 105 0;
#X connect 86 0 85 1;
#X connect 87 0 88 0;
#X connect 88 0 104 0;
#X connect 89 0 102 1;
#X connect 90 0 102 2;
#X connect 91 0 92 0;
#X connect 91 0 93 0;
#X connect 92 0 89 0;
#X connect 93 0 90 0;
#X connect 94 0 102 0;
#X connect 95 0 101 1;
#X connect 96 0 97 0;
#X connect 97 0 98 0;
#X connect 98 0 80 0;
#X connect 99 0 100 0;
#X connect 100 0 80 1;
#X connect 101 0 96 0;
#X connect 102 0 80 0;
#X connect 103 0 84 0;
#X connect 104 0 83 0;
#X connect 105 0 87 0;
#X connect 106 0 107 0;
#X connect 106 0 107 1;
#X connect 108 0 125 0;
#X connect 109 0 120 0;
#X connect 109 0 127 0;
#X connect 110 0 111 0;
#X connect 111 0 112 0;
#X connect 111 0 130 0;
#X connect 112 0 111 1;
#X connect 113 0 114 0;
#X connect 114 0 131 0;
#X connect 115 0 128 1;
#X connect 116 0 128 2;
#X connect 117 0 118 0;
#X connect 117 0 119 0;
#X connect 118 0 115 0;
#X connect 119 0 116 0;
#X connect 120 0 128 0;
#X connect 121 0 127 1;
#X connect 122 0 123 0;
#X connect 123 0 124 0;
#X connect 124 0 106 0;
#X connect 125 0 126 0;
#X connect 126 0 106 1;
#X connect 127 0 122 0;
#X connect 128 0 106 0;
#X connect 129 0 110 0;
#X connect 130 0 113 0;
#X connect 131 0 109 0;
#X connect 132 0 133 0;
#X connect 132 0 133 1;
#X connect 134 0 151 0;
#X connect 135 0 146 0;
#X connect 135 0 153 0;
#X connect 136 0 137 0;
#X connect 137 0 138 0;
#X connect 137 0 156 0;
#X connect 138 0 137 1;
#X connect 139 0 140 0;
#X connect 140 0 186 0;
#X connect 141 0 154 1;
#X connect 142 0 154 2;
#X connect 143 0 144 0;
#X connect 143 0 145 0;
#X connect 144 0 141 0;
#X connect 145 0 142 0;
#X connect 146 0 154 0;
#X connect 147 0 153 1;
#X connect 148 0 149 0;
#X connect 149 0 150 0;
#X connect 150 0 132 0;
#X connect 151 0 152 0;
#X connect 152 0 132 1;
#X connect 153 0 148 0;
#X connect 154 0 132 0;
#X connect 155 0 136 0;
#X connect 156 0 139 0;
#X connect 157 0 158 0;
#X connect 157 0 158 1;
#X connect 157 0 183 0;
#X connect 159 0 177 0;
#X connect 160 0 171 0;
#X connect 160 0 179 0;
#X connect 161 0 162 0;
#X connect 162 0 163 0;
#X connect 162 0 182 0;
#X connect 163 0 162 1;
#X connect 164 0 165 0;
#X connect 165 0 187 0;
#X connect 166 0 180 1;
#X connect 167 0 180 2;
#X connect 168 0 169 0;
#X connect 168 0 170 0;
#X connect 169 0 166 0;
#X connect 170 0 167 0;
#X connect 171 0 180 0;
#X connect 172 0 179 1;
#X connect 173 0 174 0;
#X connect 174 0 175 0;
#X connect 175 0 157 0;
#X connect 177 0 178 0;
#X connect 178 0 157 1;
#X connect 179 0 173 0;
#X connect 180 0 157 0;
#X connect 181 0 161 0;
#X connect 182 0 164 0;
#X connect 184 0 250 0;
#X connect 186 0 135 0;
#X connect 187 0 160 0;
#X connect 188 0 189 0;
#X connect 188 0 189 1;
#X connect 190 0 207 0;
#X connect 191 0 202 0;
#X connect 191 0 209 0;
#X connect 192 0 193 0;
#X connect 193 0 194 0;
#X connect 193 0 212 0;
#X connect 194 0 193 1;
#X connect 195 0 196 0;
#X connect 196 0 242 0;
#X connect 197 0 210 1;
#X connect 198 0 210 2;
#X connect 199 0 200 0;
#X connect 199 0 201 0;
#X connect 200 0 197 0;
#X connect 201 0 198 0;
#X connect 202 0 210 0;
#X connect 203 0 209 1;
#X connect 204 0 205 0;
#X connect 205 0 206 0;
#X connect 206 0 188 0;
#X connect 207 0 208 0;
#X connect 208 0 188 1;
#X connect 209 0 204 0;
#X connect 210 0 188 0;
#X connect 211 0 192 0;
#X connect 212 0 195 0;
#X connect 213 0 214 0;
#X connect 213 0 214 1;
#X connect 213 0 238 0;
#X connect 215 0 232 0;
#X connect 216 0 227 0;
#X connect 216 0 234 0;
#X connect 217 0 218 0;
#X connect 218 0 219 0;
#X connect 218 0 237 0;
#X connect 219 0 218 1;
#X connect 220 0 221 0;
#X connect 221 0 243 0;
#X connect 222 0 235 1;
#X connect 223 0 235 2;
#X connect 224 0 225 0;
#X connect 224 0 226 0;
#X connect 225 0 222 0;
#X connect 226 0 223 0;
#X connect 227 0 235 0;
#X connect 228 0 234 1;
#X connect 229 0 230 0;
#X connect 230 0 231 0;
#X connect 231 0 213 0;
#X connect 232 0 233 0;
#X connect 233 0 213 1;
#X connect 234 0 229 0;
#X connect 235 0 213 0;
#X connect 236 0 217 0;
#X connect 237 0 220 0;
#X connect 239 0 238 0;
#X connect 240 0 239 0;
#X connect 242 0 191 0;
#X connect 243 0 216 0;
#X connect 244 0 103 0;
#X connect 245 0 129 0;
#X connect 246 0 155 0;
#X connect 247 0 181 0;
#X connect 248 0 211 0;
#X connect 249 0 236 0;
#X connect 250 0 183 0;
#X coords 0 989 1 988 200 300 0;
